<?xml version="1.0" standalone="no"?>
<!DOCTYPE svg PUBLIC "-//W3C//DTD SVG 20010904//EN"
 "http://www.w3.org/TR/2001/REC-SVG-20010904/DTD/svg10.dtd">
<svg version="1.0" xmlns="http://www.w3.org/2000/svg"
 width="381.000000pt" height="524.000000pt" viewBox="0 0 381.000000 524.000000"
 preserveAspectRatio="xMidYMid meet">

<g transform="translate(0.000000,524.000000) scale(0.100000,-0.100000)"
fill="#000000" stroke="none">
<path d="M1741 4499 c-8 -25 -7 -37 7 -62 15 -29 19 -57 22 -142 l0 -30 14 31
c18 41 31 48 50 28 22 -21 20 -60 -4 -84 -19 -19 -19 -22 -4 -46 32 -47 99
-67 157 -45 16 6 36 32 56 72 52 105 39 197 -35 256 -48 37 -90 46 -154 31
-41 -9 -53 -9 -73 5 -25 16 -26 16 -36 -14z"/>
<path d="M1248 4409 c-15 -8 -18 -24 -18 -83 0 -80 4 -86 61 -86 21 0 29 -5
29 -17 1 -17 1 -17 14 0 7 9 26 17 43 17 44 0 53 16 53 92 0 56 -3 69 -19 78
-25 13 -141 13 -163 -1z m134 -46 c15 -19 -4 -60 -37 -75 -22 -10 -29 -8 -50
12 -23 22 -33 59 -19 72 11 12 94 5 106 -9z"/>
<path d="M1027 4163 c-4 -3 -7 -21 -7 -39 0 -26 5 -33 25 -36 14 -3 36 -3 50
0 22 4 25 10 25 43 l0 39 -43 0 c-24 0 -47 -3 -50 -7z m71 -22 c6 -17 -17 -41
-33 -35 -15 6 -27 32 -20 43 7 12 48 6 53 -8z"/>
<path d="M1188 4085 c-7 -7 11 -106 23 -125 8 -14 5 40 -7 97 -3 18 1 22 28
26 l33 4 -36 1 c-20 1 -38 0 -41 -3z"/>
<path d="M1288 4073 c12 -2 32 -2 45 0 12 2 2 4 -23 4 -25 0 -35 -2 -22 -4z"/>
<path d="M1388 4063 c12 -2 30 -2 40 0 9 3 -1 5 -23 4 -22 0 -30 -2 -17 -4z"/>
<path d="M1870 4061 c-49 -10 -130 -50 -137 -67 -3 -8 -19 -14 -38 -14 -56 0
-82 -16 -126 -79 -24 -34 -46 -61 -50 -61 -4 0 -9 -9 -12 -21 -5 -17 -11 -20
-34 -15 -15 3 -74 8 -131 12 -79 5 -105 10 -112 23 -8 14 -9 13 -10 -6 0 -19
7 -22 68 -28 37 -3 97 -9 135 -13 l67 -7 -48 -72 c-60 -90 -98 -133 -117 -133
-13 0 -95 152 -95 178 0 27 -24 21 -70 -18 l-50 -42 6 -61 c13 -143 62 -263
123 -304 60 -40 147 -28 226 33 l35 26 0 -30 c0 -17 -5 -86 -10 -154 -22 -263
-29 -482 -17 -490 7 -4 -7 -8 -31 -8 -58 0 -128 -19 -145 -39 -28 -31 -39 -89
-32 -162 6 -61 9 -68 20 -52 8 10 9 20 4 21 -5 2 -9 13 -9 24 0 14 5 18 15 14
8 -3 15 0 15 6 0 6 6 6 16 -3 14 -11 18 -11 29 4 10 13 14 15 18 5 3 -10 9 -8
26 6 15 14 21 15 21 6 0 -11 3 -11 12 -2 19 19 45 14 52 -10 3 -13 16 -36 30
-53 23 -29 24 -29 44 -12 26 24 60 14 68 -18 4 -15 -2 -38 -17 -64 -19 -35
-21 -43 -9 -70 12 -30 55 -73 96 -97 18 -11 18 -13 -11 -44 -42 -44 -96 -70
-150 -70 -47 0 -85 24 -85 55 0 8 9 19 20 25 41 22 21 32 -52 29 -54 -3 -88
-11 -129 -32 -49 -23 -60 -34 -77 -75 -29 -66 -40 -147 -48 -347 -7 -167 -14
-206 -47 -233 -12 -10 -19 6 -46 93 -18 57 -37 107 -42 111 -11 7 -671 6 -678
-1 -5 -6 138 -465 149 -478 4 -4 -4 -29 -17 -54 -12 -26 -23 -58 -23 -72 1
-46 35 -105 92 -157 58 -52 191 -129 208 -119 5 3 19 -27 31 -67 11 -40 23
-75 24 -76 2 -2 61 2 132 8 120 12 137 11 253 -9 69 -13 136 -28 148 -34 32
-15 52 -57 52 -110 0 -62 10 -107 25 -107 14 0 71 120 80 171 l7 36 81 11
c170 22 278 88 334 202 18 36 35 88 39 115 6 50 6 50 -27 60 -26 8 -35 17 -41
43 -13 48 -75 106 -134 122 -56 16 -146 17 -186 1 -26 -10 -28 -9 -28 14 l0
25 -179 0 -179 0 -15 44 c-17 50 -9 66 34 66 31 0 86 56 120 122 21 41 21 47
10 178 -6 74 -20 180 -31 235 l-20 99 27 39 c54 78 106 102 149 68 34 -27 104
-27 163 -1 24 11 50 20 58 20 18 0 137 -113 163 -156 24 -38 65 -298 56 -349
-8 -40 -60 -89 -131 -125 -27 -14 -52 -26 -54 -27 -3 -2 65 -131 73 -141 5 -5
121 39 161 62 l43 23 7 -161 c8 -178 6 -212 -13 -208 -10 2 -11 -11 -6 -50 4
-29 10 -57 15 -62 12 -13 128 -21 140 -9 8 8 -8 589 -30 1033 -6 107 -13 319
-17 472 l-6 276 56 12 c34 7 56 17 56 25 0 7 -14 217 -30 465 -17 249 -28 455
-25 459 2 4 9 36 14 72 13 84 1 147 -33 174 -16 13 -26 31 -26 47 0 41 -21 78
-54 95 -34 18 -125 25 -176 14z m-86 -1748 l8 -93 -34 0 c-58 0 -62 9 -48 86
7 38 22 98 33 134 l21 65 6 -50 c4 -27 10 -92 14 -142z m-1025 -829 c33 -42
22 -84 -21 -84 -39 0 -78 77 -51 103 15 16 53 5 72 -19z m677 -319 c-32 -14
-69 -23 -82 -20 -13 3 -35 7 -49 10 -14 3 -25 12 -25 20 0 12 19 15 108 15
l107 -1 -59 -24z m-66 -420 c0 -2 -5 -16 -12 -30 l-11 -25 -35 21 c-24 13 -37
17 -42 9 -4 -7 -15 -8 -31 -1 -18 7 -20 10 -9 15 27 10 140 19 140 11z"/>
<path d="M1462 4054 c9 -3 19 -16 21 -30 4 -21 4 -21 3 3 -1 20 -7 28 -21 30
-14 1 -15 0 -3 -3z"/>
<path d="M2495 4035 c-14 -13 -25 -29 -25 -35 0 -5 -11 -10 -25 -10 -33 0 -59
-41 -52 -79 5 -23 2 -30 -13 -34 -25 -6 -27 -62 -5 -94 10 -14 12 -24 5 -28
-20 -12 -12 -25 63 -106 23 -25 67 -26 67 -1 0 11 -9 27 -20 37 -30 28 -23 61
13 58 25 -2 31 4 53 50 13 29 24 58 24 65 0 17 84 16 120 -3 32 -17 63 -59 35
-49 -25 10 -17 -10 10 -23 20 -9 25 -8 25 2 0 7 7 15 15 19 17 6 20 51 5 61
-6 4 -8 21 -4 41 8 44 -16 84 -51 84 -17 0 -25 6 -25 18 0 38 -49 55 -89 30
-14 -9 -23 -8 -42 5 -33 23 -56 21 -84 -8z"/>
<path d="M3077 3903 c-4 -3 -7 -41 -7 -84 0 -83 4 -88 68 -89 14 0 22 -6 22
-17 1 -17 1 -17 14 0 7 9 23 17 35 17 50 0 61 16 61 88 0 40 -5 73 -12 80 -13
13 -169 17 -181 5z m148 -54 c7 -21 -10 -51 -38 -68 -35 -22 -89 32 -74 73 4
9 23 14 56 14 40 0 52 -4 56 -19z"/>
<path d="M2618 3813 c-30 -8 -20 -20 12 -15 16 2 27 8 24 13 -5 9 -8 10 -36 2z"/>
<path d="M2620 3746 c0 -24 17 -28 23 -6 3 13 0 20 -9 20 -8 0 -14 -6 -14 -14z"/>
<path d="M2727 3743 c-10 -9 -8 -33 2 -33 5 0 11 9 14 20 5 20 -3 26 -16 13z"/>
<path d="M2700 3713 c0 -6 -3 -18 -6 -27 -4 -11 -1 -16 10 -16 9 0 16 6 16 13
0 16 -20 46 -20 30z"/>
<path d="M2840 3661 c0 -33 3 -39 25 -43 14 -3 36 -3 50 0 22 4 25 10 25 43
l0 39 -50 0 -50 0 0 -39z m75 3 c0 -21 -31 -32 -47 -16 -17 17 -2 39 24 37 15
-1 23 -8 23 -21z"/>
<path d="M2616 3645 c11 -26 64 -47 64 -25 0 6 -9 10 -20 10 -11 0 -23 7 -26
15 -4 8 -10 15 -15 15 -4 0 -6 -7 -3 -15z"/>
<path d="M2530 3580 c0 -18 66 -80 84 -80 28 0 17 29 -17 43 -18 8 -40 22 -50
31 -10 10 -17 13 -17 6z"/>
<path d="M2916 3515 c-3 -9 -6 -34 -6 -54 0 -21 -3 -41 -6 -44 -4 -4 -22 7
-41 23 -35 31 -68 39 -77 18 -3 -10 -9 -8 -19 5 -8 9 -21 17 -30 17 -14 0 -14
-3 1 -30 16 -30 16 -32 -2 -45 -22 -17 -103 -35 -156 -35 -35 0 -40 4 -64 45
-15 25 -33 45 -41 45 -16 0 -20 -16 -6 -24 5 -3 11 -15 14 -26 7 -28 -15 -26
-52 5 -25 22 -35 25 -62 17 -44 -11 -66 -45 -84 -127 -32 -154 -9 -333 52
-394 30 -30 38 -33 75 -28 l41 5 -6 -59 c-5 -56 -4 -59 18 -59 52 0 84 12 88
34 4 20 4 20 6 -1 1 -22 5 -23 80 -23 116 0 141 7 142 39 l1 26 7 -25 c4 -15
15 -26 28 -28 20 -3 21 0 17 55 -3 32 -1 119 3 192 l8 135 52 -46 c89 -80 201
-148 242 -148 30 0 51 38 51 93 0 49 -56 237 -70 237 -4 0 -24 -18 -43 -39
l-36 -40 -26 35 c-22 29 -32 34 -66 34 -46 0 -46 1 -29 139 11 81 9 109 -4 76z
m-41 -141 c-3 -13 -7 -35 -10 -48 -3 -17 -19 -29 -57 -46 -29 -12 -71 -40 -94
-62 l-41 -39 -16 25 c-16 24 -16 26 20 55 19 16 45 46 57 67 16 30 33 43 76
59 30 12 58 20 63 18 4 -2 5 -15 2 -29z"/>
<path d="M1390 2491 c0 -5 11 -11 25 -13 28 -6 34 6 9 16 -22 8 -34 7 -34 -3z"/>
<path d="M1392 2439 c2 -7 10 -15 17 -17 8 -3 12 1 9 9 -2 7 -10 15 -17 17 -8
3 -12 -1 -9 -9z"/>
<path d="M1300 2415 c0 -8 5 -15 10 -15 6 0 10 7 10 15 0 8 -4 15 -10 15 -5 0
-10 -7 -10 -15z"/>
<path d="M1342 2365 c-10 -22 -9 -25 7 -25 14 0 17 6 13 25 -2 14 -5 25 -7 25
-1 0 -7 -11 -13 -25z"/>
<path d="M1440 2332 c0 -6 -12 -18 -27 -26 -16 -8 -23 -15 -17 -16 18 0 60 37
52 46 -5 4 -8 2 -8 -4z"/>
<path d="M812 2241 c-9 -5 -12 -25 -10 -57 3 -45 5 -49 31 -52 15 -2 27 -9 27
-15 0 -9 2 -9 8 -1 4 7 18 14 32 15 22 4 25 9 28 53 2 32 -1 52 -10 57 -17 11
-89 11 -106 0z m95 -38 c2 -6 -5 -21 -17 -33 -21 -21 -23 -21 -41 -4 -10 9
-19 26 -19 36 0 16 6 19 37 16 20 -2 38 -8 40 -15z"/>
<path d="M2962 2187 c-21 -12 -59 -22 -103 -25 -68 -5 -78 -12 -60 -41 17 -26
147 16 187 60 24 27 15 29 -24 6z"/>
<path d="M2580 2098 c-25 -11 -71 -22 -102 -25 -46 -5 -58 -9 -58 -23 0 -9 3
-19 6 -22 8 -9 138 29 184 52 77 39 51 55 -30 18z"/>
<path d="M562 1992 c-9 -6 -12 -30 -10 -83 l3 -74 35 -3 c19 -2 41 -10 48 -19
11 -16 13 -16 25 0 6 9 28 17 47 19 l35 3 0 80 0 80 -85 3 c-47 1 -91 -2 -98
-6z m144 -44 c11 -17 -6 -58 -30 -73 -20 -13 -28 -14 -45 -4 -25 17 -45 53
-38 72 6 17 103 21 113 5z"/>
<path d="M997 1893 c-4 -3 -7 -19 -7 -34 0 -21 8 -31 30 -43 17 -8 30 -10 30
-5 0 5 9 9 20 9 17 0 20 7 20 40 l0 40 -43 0 c-24 0 -47 -3 -50 -7z m77 -22
c3 -4 -3 -16 -13 -25 -17 -16 -20 -16 -35 -1 -9 9 -16 21 -16 26 0 11 57 12
64 0z"/>
<path d="M2674 1425 c-5 -17 -7 -73 -4 -125 5 -92 6 -94 21 -70 14 21 15 38 8
115 -12 111 -13 117 -25 80z"/>
<path d="M2507 1161 c-17 -29 -21 -86 -8 -129 l6 -24 23 25 c21 22 22 30 16
91 -4 36 -10 66 -13 66 -4 0 -14 -13 -24 -29z"/>
<path d="M2308 930 c-27 -17 -48 -35 -48 -41 0 -6 21 -38 47 -72 98 -131 142
-161 128 -89 -3 20 -10 69 -14 109 -5 56 -12 77 -30 97 -14 14 -27 26 -30 26
-3 0 -27 -14 -53 -30z"/>
<path d="M425 868 c11 -53 71 -171 103 -201 l29 -27 67 20 c73 23 72 20 41 96
-11 27 -20 32 -59 38 -34 5 -60 19 -105 57 -70 58 -85 62 -76 17z"/>
<path d="M2586 791 c-4 -5 -9 -37 -12 -70 l-7 -61 114 0 c63 0 124 3 137 6 31
9 24 35 -13 47 -16 5 -55 27 -85 48 -55 38 -120 53 -134 30z"/>
</g>
</svg>
